<svg width="1135" height="992" xmlns="http://www.w3.org/2000/svg" xmlns:xlink="http://www.w3.org/1999/xlink" xml:space="preserve" overflow="hidden"><g transform="translate(-3154 -498)"><path d="M3162 995.864C3162 985.998 3170 978 3179.86 978L4258.14 978C4268 978 4276 985.998 4276 995.864L4276 1356.14C4276 1366 4268 1374 4258.14 1374L3179.86 1374C3170 1374 3162 1366 3162 1356.14Z" stroke="#000000" stroke-width="5.72917" stroke-miterlimit="8" fill="none" fill-rule="evenodd"/><path d="M3164 539.36C3164 529.22 3172.22 521 3182.36 521L4259.64 521C4269.78 521 4278 529.22 4278 539.36L4278 909.641C4278 919.78 4269.78 928 4259.64 928L3182.36 928C3172.22 928 3164 919.78 3164 909.641Z" stroke="#000000" stroke-width="5.72917" stroke-miterlimit="8" fill="none" fill-rule="evenodd"/><path d="M4178.86 1052 4178.86 1092.28 4173.14 1092.28 4173.14 1052ZM4185.17 1087.7 4176 1106.03 4166.83 1087.7Z" fill="#404040"/><path d="M3983.86 1052 3983.86 1092.28 3978.14 1092.28 3978.14 1052ZM3990.17 1087.7 3981 1106.03 3971.83 1087.7Z" fill="#404040"/><path d="M4080.86 1175 4080.86 1247.73 4075.14 1247.73 4075.14 1175ZM4087.17 1243.15 4078 1261.48 4068.83 1243.15Z" fill="#404040"/><rect x="3916.5" y="1106.5" width="323" height="69.0001" stroke="#000000" stroke-width="4.58333" stroke-miterlimit="8" fill="#FFFFFF"/><text fill="#70AD47" font-family="Calibri,Calibri_MSFontService,sans-serif" font-weight="700" font-size="46" transform="matrix(1 0 0 1 3950.38 1156)">Lookup</text><text fill="#70AD47" font-family="Calibri,Calibri_MSFontService,sans-serif" font-weight="700" font-size="46" transform="matrix(1 0 0 1 4100.48 1156)">Table</text><path d="M3916.5 1000.5 4017.5 1000.5 4042.5 1025.5 4017.5 1050.5 3916.5 1050.5Z" stroke="#404040" stroke-width="4.58333" stroke-linejoin="round" stroke-miterlimit="10" fill="#F2F2F2" fill-rule="evenodd"/><text font-family="Calibri,Calibri_MSFontService,sans-serif" font-weight="400" font-size="41" transform="matrix(1 0 0 1 3932.02 1039)">FP16</text><path d="M4113.5 1000.5 4213.5 1000.5 4238.5 1025.5 4213.5 1050.5 4113.5 1050.5Z" stroke="#404040" stroke-width="4.58333" stroke-linejoin="round" stroke-miterlimit="10" fill="#F2F2F2" fill-rule="evenodd"/><text font-family="Calibri,Calibri_MSFontService,sans-serif" font-weight="400" font-size="41" transform="matrix(1 0 0 1 4130.54 1039)">INT8</text><path d="M4036.5 1263.5 4137.5 1263.5 4162.5 1288.5 4137.5 1313.5 4036.5 1313.5Z" stroke="#404040" stroke-width="4.58333" stroke-linejoin="round" stroke-miterlimit="10" fill="#F2F2F2" fill-rule="evenodd"/><text font-family="Calibri,Calibri_MSFontService,sans-serif" font-weight="400" font-size="41" transform="matrix(1 0 0 1 4051.85 1302)">FP16</text><g><g><g><path d="M39 8.125C21.9375 8.125 8.125 21.9375 8.125 39 8.125 56.0625 21.9375 69.875 39 69.875 56.0625 69.875 69.875 56.0625 69.875 39 69.875 21.9375 56.0625 8.125 39 8.125ZM39 68.25C22.8313 68.25 9.75 55.1688 9.75 39 9.75 22.8313 22.8313 9.75 39 9.75 55.1688 9.75 68.25 22.8313 68.25 39 68.25 55.1688 55.1688 68.25 39 68.25Z" stroke="#70AD47" stroke-width="3.46654" fill="none" transform="matrix(1.01282 0 0 1 4038 1030)"/><path d="M53.5438 50.7C47.125 58.7438 35.425 60.0438 27.3813 53.625 26.325 52.7313 25.35 51.7563 24.4563 50.7 24.2125 50.375 23.6438 50.2938 23.3188 50.5375 22.9938 50.7813 22.9125 51.35 23.1563 51.675 30.1438 60.45 42.9 61.8313 51.675 54.8438 52.8125 53.8688 53.8688 52.8125 54.8438 51.675 55.0875 51.35 55.0875 50.7813 54.6813 50.5375 54.275 50.2938 53.8688 50.2938 53.5438 50.7L53.5438 50.7Z" stroke="#70AD47" stroke-width="3.46654" fill="none" transform="matrix(1.01282 0 0 1 4038 1030)"/><path d="M30.875 34.125C30.875 31.4438 28.6813 29.25 26 29.25 23.3188 29.25 21.125 31.4438 21.125 34.125 21.125 36.8063 23.3188 39 26 39 28.6813 39 30.875 36.8063 30.875 34.125ZM22.75 34.125C22.75 32.3375 24.2125 30.875 26 30.875 27.7875 30.875 29.25 32.3375 29.25 34.125 29.25 35.9125 27.7875 37.375 26 37.375 24.2125 37.375 22.75 35.9125 22.75 34.125Z" stroke="#70AD47" stroke-width="3.46654" fill="none" transform="matrix(1.01282 0 0 1 4038 1030)"/><path d="M52 29.25C49.3188 29.25 47.125 31.4438 47.125 34.125 47.125 36.8063 49.3188 39 52 39 54.6813 39 56.875 36.8063 56.875 34.125 56.875 31.4438 54.6813 29.25 52 29.25ZM52 37.375C50.2125 37.375 48.75 35.9125 48.75 34.125 48.75 32.3375 50.2125 30.875 52 30.875 53.7875 30.875 55.25 32.3375 55.25 34.125 55.25 35.9125 53.7875 37.375 52 37.375 52 37.375 52 37.375 52 37.375L52 37.375Z" stroke="#70AD47" stroke-width="3.46654" fill="none" transform="matrix(1.01282 0 0 1 4038 1030)"/></g></g></g><path d="M3542.86 1117 3542.86 1141.07 3537.14 1141.07 3537.14 1117ZM3549.17 1136.48 3540 1154.82 3530.83 1136.48Z" fill="#404040"/><path d="M3346.86 1019.99 3347.12 1135.54 3341.39 1135.56 3341.14 1020.01ZM3353.41 1130.95 3344.28 1149.3 3335.08 1130.99Z" fill="#404040"/><path d="M3443.86 1210 3443.86 1255.17 3438.14 1255.17 3438.14 1210ZM3450.17 1250.59 3441 1268.92 3431.83 1250.59Z" fill="#404040"/><rect x="3279.5" y="1155.5" width="323" height="55" stroke="#000000" stroke-width="4.58333" stroke-miterlimit="8" fill="#FFFFFF"/><text fill="#C00000" font-family="Calibri,Calibri_MSFontService,sans-serif" font-weight="700" font-size="46" transform="matrix(1 0 0 1 3323.14 1198)">FP16</text><text fill="#C00000" font-family="Calibri,Calibri_MSFontService,sans-serif" font-weight="700" font-size="46" transform="matrix(1 0 0 1 3426.27 1198)">GEMM</text><rect x="3296" y="1023" width="275" height="49.9999" fill="#FFFFFF" fill-opacity="0.505882"/><text fill="#C00000" font-family="Calibri,Calibri_MSFontService,sans-serif" font-weight="700" font-size="41" transform="matrix(1 0 0 1 3354.14 1062)">Dequant</text><text fill="#C00000" font-family="Calibri,Calibri_MSFontService,sans-serif" font-weight="700" font-size="41" transform="matrix(1 0 0 1 3502.53 1062)">.</text><path d="M3281.5 981.5 3382.5 981.5 3407.5 1006.5 3382.5 1031.5 3281.5 1031.5Z" stroke="#404040" stroke-width="4.58333" stroke-linejoin="round" stroke-miterlimit="10" fill="#F2F2F2" fill-rule="evenodd"/><text font-family="Calibri,Calibri_MSFontService,sans-serif" font-weight="400" font-size="41" transform="matrix(1 0 0 1 3296.88 1020)">FP16</text><path d="M3542.86 1019.99 3543 1055.68 3537.27 1055.7 3537.14 1020.01ZM3549.29 1051.07 3540.19 1069.44 3530.95 1051.14Z" fill="#C00000"/><rect x="3477.5" y="1070.5" width="126" height="50.0002" stroke="#404040" stroke-width="4.58333" stroke-linejoin="round" stroke-miterlimit="10" stroke-dasharray="18.3333 13.75" fill="#F2F2F2"/><text font-family="Calibri,Calibri_MSFontService,sans-serif" font-weight="400" font-size="41" transform="matrix(1 0 0 1 3499.64 1109)">FP16</text><path d="M3479.5 981.5 3576.5 981.5 3601.5 1006.5 3576.5 1031.5 3479.5 1031.5Z" stroke="#404040" stroke-width="4.58333" stroke-linejoin="round" stroke-miterlimit="10" fill="#F2F2F2" fill-rule="evenodd"/><text font-family="Calibri,Calibri_MSFontService,sans-serif" font-weight="400" font-size="41" transform="matrix(1 0 0 1 3495.21 1020)">INT8</text><path d="M3380.5 1264.5 3486.59 1264.5 3506.5 1289.5 3486.59 1314.5 3380.5 1314.5Z" stroke="#404040" stroke-width="4.58333" stroke-linejoin="round" stroke-miterlimit="10" fill="#F2F2F2" fill-rule="evenodd"/><text font-family="Calibri,Calibri_MSFontService,sans-serif" font-weight="400" font-size="41" transform="matrix(1 0 0 1 3397.54 1303)">FP16</text><path d="M3165 850.668C3165 838.149 3175.15 828 3187.67 828L4256.33 828C4268.85 828 4279 838.149 4279 850.668L4279 941.332C4279 953.851 4268.85 964 4256.33 964L3187.67 964C3175.15 964 3165 953.851 3165 941.332Z" stroke="#70AD47" stroke-width="10.3125" stroke-miterlimit="8" fill="#E2F0D9" fill-rule="evenodd"/><text font-family="Calibri,Calibri_MSFontService,sans-serif" font-style="italic" font-weight="700" font-size="55" transform="matrix(1 0 0 1 3268.68 881)">Algorithm: Speculation</text><text font-family="Calibri,Calibri_MSFontService,sans-serif" font-style="italic" font-weight="700" font-size="55" transform="matrix(1 0 0 1 3795.19 881)">-</text><text font-family="Calibri,Calibri_MSFontService,sans-serif" font-style="italic" font-weight="700" font-size="55" transform="matrix(1 0 0 1 3811.8 881)">based</text><text font-family="Calibri,Calibri_MSFontService,sans-serif" font-style="italic" font-weight="700" font-size="55" transform="matrix(1 0 0 1 3960.76 881)">similarity</text><text font-family="Calibri,Calibri_MSFontService,sans-serif" font-style="italic" font-weight="700" font-size="55" transform="matrix(1 0 0 1 3492.11 947)">exploitation (</text><text font-family="Calibri,Calibri_MSFontService,sans-serif" font-style="italic" font-weight="700" font-size="55" transform="matrix(1 0 0 1 3799.2 947)">Sec.III</text><text font-family="Calibri,Calibri_MSFontService,sans-serif" font-style="italic" font-weight="700" font-size="55" transform="matrix(1 0 0 1 3934.41 947)">)</text><path d="M3164 1347.5C3164 1335.63 3173.63 1326 3185.5 1326L4257.5 1326C4269.37 1326 4279 1335.63 4279 1347.5L4279 1433.5C4279 1445.37 4269.37 1455 4257.5 1455L3185.5 1455C3173.63 1455 3164 1445.37 3164 1433.5Z" stroke="#70AD47" stroke-width="10.3125" stroke-miterlimit="8" fill="#E2F0D9" fill-rule="evenodd"/><text font-family="Calibri,Calibri_MSFontService,sans-serif" font-style="italic" font-weight="700" font-size="55" transform="matrix(1 0 0 1 3187.88 1376)">Micro</text><text font-family="Calibri,Calibri_MSFontService,sans-serif" font-style="italic" font-weight="700" font-size="55" transform="matrix(1 0 0 1 3321.37 1376)">-</text><text font-family="Calibri,Calibri_MSFontService,sans-serif" font-style="italic" font-weight="700" font-size="55" transform="matrix(1 0 0 1 3337.99 1376)">architecture: Buffered LUT</text><text font-family="Calibri,Calibri_MSFontService,sans-serif" font-style="italic" font-weight="700" font-size="55" transform="matrix(1 0 0 1 3940.12 1376)">-</text><text font-family="Calibri,Calibri_MSFontService,sans-serif" font-style="italic" font-weight="700" font-size="55" transform="matrix(1 0 0 1 3956.74 1376)">based FP</text><text font-family="Calibri,Calibri_MSFontService,sans-serif" font-style="italic" font-weight="700" font-size="55" transform="matrix(1 0 0 1 4160.12 1376)">-</text><text font-family="Calibri,Calibri_MSFontService,sans-serif" font-style="italic" font-weight="700" font-size="55" transform="matrix(1 0 0 1 4176.74 1376)">INT</text><text font-family="Calibri,Calibri_MSFontService,sans-serif" font-style="italic" font-weight="700" font-size="55" transform="matrix(1 0 0 1 3323.94 1442)">multiplication</text><text font-family="Calibri,Calibri_MSFontService,sans-serif" font-style="italic" font-weight="700" font-size="55" transform="matrix(1 0 0 1 3656.23 1442)">architecture (</text><text font-family="Calibri,Calibri_MSFontService,sans-serif" font-style="italic" font-weight="700" font-size="55" transform="matrix(1 0 0 1 3963.89 1442)">Sec.IV</text><text font-family="Calibri,Calibri_MSFontService,sans-serif" font-style="italic" font-weight="700" font-size="55" transform="matrix(1 0 0 1 4101.96 1442)">)</text><g><g><g><path d="M3408.5 1084.23C3391.23 1084.23 3377.23 1098.23 3377.23 1115.5 3377.23 1132.77 3391.23 1146.77 3408.5 1146.77 3425.77 1146.77 3439.77 1132.77 3439.77 1115.5 3439.77 1098.23 3425.77 1084.23 3408.5 1084.23ZM3408.5 1145.12C3392.14 1145.12 3378.88 1131.86 3378.88 1115.5 3378.88 1099.14 3392.14 1085.87 3408.5 1085.87 3424.86 1085.87 3438.12 1099.14 3438.12 1115.5 3438.11 1131.85 3424.85 1145.11 3408.5 1145.12Z" stroke="#C00000" stroke-width="3.51112" fill="#FFFFFF"/><path d="M3403.25 1098.75C3403.54 1098.41 3403.5 1097.89 3403.16 1097.59 3402.81 1097.3 3402.29 1097.34 3401.99 1097.68 3399.2 1100.95 3394.75 1102.28 3390.63 1101.08 3390.19 1100.95 3389.73 1101.2 3389.61 1101.64 3389.48 1102.07 3389.73 1102.53 3390.17 1102.66 3394.91 1104.04 3400.03 1102.51 3403.25 1098.75Z" stroke="#C00000" stroke-width="3.51112" fill="#FFFFFF"/><path d="M3426.38 1101.08C3422.25 1102.28 3417.8 1100.95 3415.01 1097.68 3414.72 1097.33 3414.2 1097.28 3413.85 1097.56 3413.5 1097.85 3413.44 1098.37 3413.73 1098.72 3413.74 1098.73 3413.75 1098.74 3413.76 1098.75 3416.97 1102.51 3422.09 1104.04 3426.84 1102.66 3427.27 1102.53 3427.52 1102.07 3427.4 1101.64 3427.27 1101.2 3426.81 1100.95 3426.38 1101.08Z" stroke="#C00000" stroke-width="3.51112" fill="#FFFFFF"/><path d="M3408.49 1122.88C3401.86 1122.89 3396.26 1127.82 3395.44 1134.4L3421.54 1134.4C3420.71 1127.82 3415.12 1122.88 3408.49 1122.88ZM3397.46 1132.75C3399.27 1126.66 3405.68 1123.2 3411.77 1125.01 3415.49 1126.12 3418.4 1129.03 3419.51 1132.75Z" stroke="#C00000" stroke-width="3.51112" fill="#FFFFFF"/><path d="M3402.74 1113.85C3402.74 1113.56 3402.58 1113.29 3402.33 1113.14L3392.45 1107.5C3392.06 1107.26 3391.56 1107.39 3391.32 1107.78 3391.09 1108.17 3391.21 1108.67 3391.6 1108.91 3391.61 1108.91 3391.63 1108.92 3391.64 1108.93L3400.25 1113.85C3400.25 1113.85 3400.25 1113.85 3400.25 1113.86 3400.25 1113.86 3400.25 1113.86 3400.25 1113.86L3391.63 1118.78C3391.23 1119 3391.08 1119.5 3391.3 1119.9 3391.51 1120.3 3392.01 1120.45 3392.41 1120.23 3392.42 1120.22 3392.44 1120.22 3392.45 1120.21L3402.32 1114.57C3402.58 1114.42 3402.74 1114.15 3402.74 1113.85Z" stroke="#C00000" stroke-width="3.51112" fill="#FFFFFF"/><path d="M3425.67 1107.8C3425.45 1107.41 3424.94 1107.27 3424.55 1107.5L3414.68 1113.14C3414.28 1113.37 3414.14 1113.87 3414.37 1114.26 3414.44 1114.39 3414.55 1114.5 3414.68 1114.57L3424.55 1120.21C3424.94 1120.45 3425.45 1120.32 3425.68 1119.93 3425.91 1119.54 3425.79 1119.04 3425.4 1118.8 3425.39 1118.8 3425.38 1118.79 3425.37 1118.78L3416.75 1113.86C3416.75 1113.86 3416.75 1113.85 3416.75 1113.85 3416.75 1113.85 3416.75 1113.85 3416.75 1113.85L3425.37 1108.93C3425.76 1108.7 3425.9 1108.2 3425.67 1107.8Z" stroke="#C00000" stroke-width="3.51112" fill="#FFFFFF"/></g></g></g><rect x="3719.5" y="1250.5" width="268" height="59.9998" stroke="#000000" stroke-width="4.58333" stroke-miterlimit="8" fill="#FFFFFF"/><text fill="#70AD47" font-family="Calibri,Calibri_MSFontService,sans-serif" font-weight="700" font-size="46" transform="matrix(1 0 0 1 3752.63 1296)">LUT Buffer</text><path d="M3850.14 1250.63 3850.14 1138.14 3902.41 1138.14 3902.41 1143.86 3853 1143.86 3855.86 1141 3855.86 1250.63ZM3897.83 1131.83 3916.16 1141 3897.83 1150.17Z" fill="#404040"/><text fill="#70AD47" font-family="Calibri,Calibri_MSFontService,sans-serif" font-style="italic" font-weight="700" font-size="48" transform="matrix(1 0 0 1 3666.03 1021)">Fast &amp; Bank </text><text fill="#70AD47" font-family="Calibri,Calibri_MSFontService,sans-serif" font-style="italic" font-weight="700" font-size="48" transform="matrix(1 0 0 1 3664.88 1062)">conflict</text><text fill="#70AD47" font-family="Calibri,Calibri_MSFontService,sans-serif" font-style="italic" font-weight="700" font-size="48" transform="matrix(1 0 0 1 3811.55 1062)">-</text><text fill="#70AD47" font-family="Calibri,Calibri_MSFontService,sans-serif" font-style="italic" font-weight="700" font-size="48" transform="matrix(1 0 0 1 3826.44 1062)">free</text><rect x="3674" y="1131" width="176" height="100" fill="#FFFFFF" fill-opacity="0.505882"/><text font-family="Calibri,Calibri_MSFontService,sans-serif" font-weight="400" font-size="41" transform="matrix(1 0 0 1 3690.69 1170)">prefetch </text><text font-family="Calibri,Calibri_MSFontService,sans-serif" font-weight="400" font-size="41" transform="matrix(1 0 0 1 3703.59 1219)">&amp; copy</text><path d="M3641.27 569.603 3667.25 569.603 3667.25 595.587 3641.27 595.587Z" fill="#ED7D31" fill-rule="evenodd"/><path d="M3667.25 569.603 3693.24 569.603 3693.24 595.587 3667.25 595.587Z" fill="#ED7D31" fill-rule="evenodd"/><path d="M3693.24 569.603 3719.22 569.603 3719.22 595.587 3693.24 595.587Z" fill="#DAE3F3" fill-rule="evenodd"/><path d="M3719.22 569.603 3745.21 569.603 3745.21 595.587 3719.22 595.587Z" fill="#DAE3F3" fill-rule="evenodd"/><path d="M3745.21 569.603 3771.19 569.603 3771.19 595.587 3745.21 595.587Z" fill="#DAE3F3" fill-rule="evenodd"/><path d="M3771.19 569.603 3797.18 569.603 3797.18 595.587 3771.19 595.587Z" fill="#DAE3F3" fill-rule="evenodd"/><path d="M3797.18 569.603 3823.16 569.603 3823.16 595.587 3797.18 595.587Z" fill="#DAE3F3" fill-rule="evenodd"/><path d="M3823.16 569.603 3849.14 569.603 3849.14 595.587 3823.16 595.587Z" fill="#DAE3F3" fill-rule="evenodd"/><path d="M3641.27 595.587 3667.25 595.587 3667.25 621.571 3641.27 621.571Z" fill="#ED7D31" fill-rule="evenodd"/><path d="M3667.25 595.587 3693.24 595.587 3693.24 621.571 3667.25 621.571Z" fill="#ED7D31" fill-rule="evenodd"/><path d="M3693.24 595.587 3719.22 595.587 3719.22 621.571 3693.24 621.571Z" fill="#DAE3F3" fill-rule="evenodd"/><path d="M3719.22 595.587 3745.21 595.587 3745.21 621.571 3719.22 621.571Z" fill="#DAE3F3" fill-rule="evenodd"/><path d="M3745.21 595.587 3771.19 595.587 3771.19 621.571 3745.21 621.571Z" fill="#DAE3F3" fill-rule="evenodd"/><path d="M3771.19 595.587 3797.18 595.587 3797.18 621.571 3771.19 621.571Z" fill="#DAE3F3" fill-rule="evenodd"/><path d="M3797.18 595.587 3823.16 595.587 3823.16 621.571 3797.18 621.571Z" fill="#DAE3F3" fill-rule="evenodd"/><path d="M3823.16 595.587 3849.14 595.587 3849.14 621.571 3823.16 621.571Z" fill="#DAE3F3" fill-rule="evenodd"/><path d="M3641.27 621.571 3667.25 621.571 3667.25 647.556 3641.27 647.556Z" fill="#DAE3F3" fill-rule="evenodd"/><path d="M3667.25 621.571 3693.24 621.571 3693.24 647.556 3667.25 647.556Z" fill="#DAE3F3" fill-rule="evenodd"/><path d="M3693.24 621.571 3719.22 621.571 3719.22 647.556 3693.24 647.556Z" fill="#ED7D31" fill-rule="evenodd"/><path d="M3719.22 621.571 3745.21 621.571 3745.21 647.556 3719.22 647.556Z" fill="#ED7D31" fill-rule="evenodd"/><path d="M3745.21 621.571 3771.19 621.571 3771.19 647.556 3745.21 647.556Z" fill="#DAE3F3" fill-rule="evenodd"/><path d="M3771.19 621.571 3797.18 621.571 3797.18 647.556 3771.19 647.556Z" fill="#DAE3F3" fill-rule="evenodd"/><path d="M3797.18 621.571 3823.16 621.571 3823.16 647.556 3797.18 647.556Z" fill="#DAE3F3" fill-rule="evenodd"/><path d="M3823.16 621.571 3849.14 621.571 3849.14 647.556 3823.16 647.556Z" fill="#DAE3F3" fill-rule="evenodd"/><path d="M3641.27 647.556 3667.25 647.556 3667.25 673.54 3641.27 673.54Z" fill="#DAE3F3" fill-rule="evenodd"/><path d="M3667.25 647.556 3693.24 647.556 3693.24 673.54 3667.25 673.54Z" fill="#DAE3F3" fill-rule="evenodd"/><path d="M3693.24 647.556 3719.22 647.556 3719.22 673.54 3693.24 673.54Z" fill="#ED7D31" fill-rule="evenodd"/><path d="M3719.22 647.556 3745.21 647.556 3745.21 673.54 3719.22 673.54Z" fill="#ED7D31" fill-rule="evenodd"/><path d="M3745.21 647.556 3771.19 647.556 3771.19 673.54 3745.21 673.54Z" fill="#DAE3F3" fill-rule="evenodd"/><path d="M3771.19 647.556 3797.18 647.556 3797.18 673.54 3771.19 673.54Z" fill="#DAE3F3" fill-rule="evenodd"/><path d="M3797.18 647.556 3823.16 647.556 3823.16 673.54 3797.18 673.54Z" fill="#DAE3F3" fill-rule="evenodd"/><path d="M3823.16 647.556 3849.14 647.556 3849.14 673.54 3823.16 673.54Z" fill="#DAE3F3" fill-rule="evenodd"/><path d="M3641.27 673.54 3667.25 673.54 3667.25 699.524 3641.27 699.524Z" fill="#DAE3F3" fill-rule="evenodd"/><path d="M3667.25 673.54 3693.24 673.54 3693.24 699.524 3667.25 699.524Z" fill="#DAE3F3" fill-rule="evenodd"/><path d="M3693.24 673.54 3719.22 673.54 3719.22 699.524 3693.24 699.524Z" fill="#DAE3F3" fill-rule="evenodd"/><path d="M3719.22 673.54 3745.21 673.54 3745.21 699.524 3719.22 699.524Z" fill="#DAE3F3" fill-rule="evenodd"/><path d="M3745.21 673.54 3771.19 673.54 3771.19 699.524 3745.21 699.524Z" fill="#ED7D31" fill-rule="evenodd"/><path d="M3771.19 673.54 3797.18 673.54 3797.18 699.524 3771.19 699.524Z" fill="#ED7D31" fill-rule="evenodd"/><path d="M3797.18 673.54 3823.16 673.54 3823.16 699.524 3797.18 699.524Z" fill="#ED7D31" fill-rule="evenodd"/><path d="M3823.16 673.54 3849.14 673.54 3849.14 699.524 3823.16 699.524Z" fill="#ED7D31" fill-rule="evenodd"/><path d="M3641.27 699.524 3667.25 699.524 3667.25 725.508 3641.27 725.508Z" fill="#DAE3F3" fill-rule="evenodd"/><path d="M3667.25 699.524 3693.24 699.524 3693.24 725.508 3667.25 725.508Z" fill="#DAE3F3" fill-rule="evenodd"/><path d="M3693.24 699.524 3719.22 699.524 3719.22 725.508 3693.24 725.508Z" fill="#DAE3F3" fill-rule="evenodd"/><path d="M3719.22 699.524 3745.21 699.524 3745.21 725.508 3719.22 725.508Z" fill="#DAE3F3" fill-rule="evenodd"/><path d="M3745.21 699.524 3771.19 699.524 3771.19 725.508 3745.21 725.508Z" fill="#ED7D31" fill-rule="evenodd"/><path d="M3771.19 699.524 3797.18 699.524 3797.18 725.508 3771.19 725.508Z" fill="#ED7D31" fill-rule="evenodd"/><path d="M3797.18 699.524 3823.16 699.524 3823.16 725.508 3797.18 725.508Z" fill="#ED7D31" fill-rule="evenodd"/><path d="M3823.16 699.524 3849.14 699.524 3849.14 725.508 3823.16 725.508Z" fill="#ED7D31" fill-rule="evenodd"/><path d="M3641.27 725.508 3667.25 725.508 3667.25 751.493 3641.27 751.493Z" fill="#DAE3F3" fill-rule="evenodd"/><path d="M3667.25 725.508 3693.24 725.508 3693.24 751.493 3667.25 751.493Z" fill="#DAE3F3" fill-rule="evenodd"/><path d="M3693.24 725.508 3719.22 725.508 3719.22 751.493 3693.24 751.493Z" fill="#DAE3F3" fill-rule="evenodd"/><path d="M3719.22 725.508 3745.21 725.508 3745.21 751.493 3719.22 751.493Z" fill="#DAE3F3" fill-rule="evenodd"/><path d="M3745.21 725.508 3771.19 725.508 3771.19 751.493 3745.21 751.493Z" fill="#DAE3F3" fill-rule="evenodd"/><path d="M3771.19 725.508 3797.18 725.508 3797.18 751.493 3771.19 751.493Z" fill="#DAE3F3" fill-rule="evenodd"/><path d="M3797.18 725.508 3823.16 725.508 3823.16 751.493 3797.18 751.493Z" fill="#ED7D31" fill-rule="evenodd"/><path d="M3823.16 725.508 3849.14 725.508 3849.14 751.493 3823.16 751.493Z" fill="#ED7D31" fill-rule="evenodd"/><path d="M3641.27 751.493 3667.25 751.493 3667.25 777.477 3641.27 777.477Z" fill="#DAE3F3" fill-rule="evenodd"/><path d="M3667.25 751.493 3693.24 751.493 3693.24 777.477 3667.25 777.477Z" fill="#DAE3F3" fill-rule="evenodd"/><path d="M3693.24 751.493 3719.22 751.493 3719.22 777.477 3693.24 777.477Z" fill="#DAE3F3" fill-rule="evenodd"/><path d="M3719.22 751.493 3745.21 751.493 3745.21 777.477 3719.22 777.477Z" fill="#DAE3F3" fill-rule="evenodd"/><path d="M3745.21 751.493 3771.19 751.493 3771.19 777.477 3745.21 777.477Z" fill="#DAE3F3" fill-rule="evenodd"/><path d="M3771.19 751.493 3797.18 751.493 3797.18 777.477 3771.19 777.477Z" fill="#DAE3F3" fill-rule="evenodd"/><path d="M3797.18 751.493 3823.16 751.493 3823.16 777.477 3797.18 777.477Z" fill="#ED7D31" fill-rule="evenodd"/><path d="M3823.16 751.493 3849.14 751.493 3849.14 777.477 3823.16 777.477Z" fill="#ED7D31" fill-rule="evenodd"/><path d="M3667.25 567.311 3667.25 779.769" stroke="#000000" stroke-width="4.58333" stroke-linejoin="round" stroke-miterlimit="10" fill="none" fill-rule="evenodd"/><path d="M3693.24 567.311 3693.24 779.769" stroke="#000000" stroke-width="4.58333" stroke-linejoin="round" stroke-miterlimit="10" fill="none" fill-rule="evenodd"/><path d="M3719.22 567.311 3719.22 779.769" stroke="#000000" stroke-width="4.58333" stroke-linejoin="round" stroke-miterlimit="10" fill="none" fill-rule="evenodd"/><path d="M3745.21 567.311 3745.21 779.769" stroke="#000000" stroke-width="4.58333" stroke-linejoin="round" stroke-miterlimit="10" fill="none" fill-rule="evenodd"/><path d="M3771.19 567.311 3771.19 779.769" stroke="#000000" stroke-width="4.58333" stroke-linejoin="round" stroke-miterlimit="10" fill="none" fill-rule="evenodd"/><path d="M3797.18 567.311 3797.18 779.769" stroke="#000000" stroke-width="4.58333" stroke-linejoin="round" stroke-miterlimit="10" fill="none" fill-rule="evenodd"/><path d="M3823.16 567.311 3823.16 779.769" stroke="#000000" stroke-width="4.58333" stroke-linejoin="round" stroke-miterlimit="10" fill="none" fill-rule="evenodd"/><path d="M3638.98 595.587 3851.44 595.587" stroke="#000000" stroke-width="4.58333" stroke-linejoin="round" stroke-miterlimit="10" fill="none" fill-rule="evenodd"/><path d="M3638.98 621.571 3851.44 621.571" stroke="#000000" stroke-width="4.58333" stroke-linejoin="round" stroke-miterlimit="10" fill="none" fill-rule="evenodd"/><path d="M3638.98 647.556 3851.44 647.556" stroke="#000000" stroke-width="4.58333" stroke-linejoin="round" stroke-miterlimit="10" fill="none" fill-rule="evenodd"/><path d="M3638.98 673.54 3851.44 673.54" stroke="#000000" stroke-width="4.58333" stroke-linejoin="round" stroke-miterlimit="10" fill="none" fill-rule="evenodd"/><path d="M3638.98 699.524 3851.44 699.524" stroke="#000000" stroke-width="4.58333" stroke-linejoin="round" stroke-miterlimit="10" fill="none" fill-rule="evenodd"/><path d="M3638.98 725.508 3851.44 725.508" stroke="#000000" stroke-width="4.58333" stroke-linejoin="round" stroke-miterlimit="10" fill="none" fill-rule="evenodd"/><path d="M3638.98 751.493 3851.44 751.493" stroke="#000000" stroke-width="4.58333" stroke-linejoin="round" stroke-miterlimit="10" fill="none" fill-rule="evenodd"/><path d="M3641.27 567.311 3641.27 779.769" stroke="#000000" stroke-width="4.58333" stroke-linejoin="round" stroke-miterlimit="10" fill="none" fill-rule="evenodd"/><path d="M3849.14 567.311 3849.14 779.769" stroke="#000000" stroke-width="4.58333" stroke-linejoin="round" stroke-miterlimit="10" fill="none" fill-rule="evenodd"/><path d="M3638.98 569.603 3851.44 569.603" stroke="#000000" stroke-width="4.58333" stroke-linejoin="round" stroke-miterlimit="10" fill="none" fill-rule="evenodd"/><path d="M3638.98 777.477 3851.44 777.477" stroke="#000000" stroke-width="4.58333" stroke-linejoin="round" stroke-miterlimit="10" fill="none" fill-rule="evenodd"/><path d="M3231.26 573.127 3257.24 573.127 3257.24 599.112 3231.26 599.112Z" fill="#E2F0D9" fill-rule="evenodd"/><path d="M3231.26 599.112 3257.24 599.112 3257.24 625.096 3231.26 625.096Z" fill="#E2F0D9" fill-rule="evenodd"/><path d="M3231.26 625.096 3257.24 625.096 3257.24 651.08 3231.26 651.08Z" fill="#E2F0D9" fill-rule="evenodd"/><path d="M3231.26 651.08 3257.24 651.08 3257.24 677.064 3231.26 677.064Z" fill="#E2F0D9" fill-rule="evenodd"/><path d="M3231.26 677.064 3257.24 677.064 3257.24 703.049 3231.26 703.049Z" fill="#E2F0D9" fill-rule="evenodd"/><path d="M3231.26 703.049 3257.24 703.049 3257.24 729.033 3231.26 729.033Z" fill="#E2F0D9" fill-rule="evenodd"/><path d="M3231.26 729.033 3257.24 729.033 3257.24 755.017 3231.26 755.017Z" fill="#E2F0D9" fill-rule="evenodd"/><path d="M3231.26 755.017 3257.24 755.017 3257.24 781.001 3231.26 781.001Z" fill="#E2F0D9" fill-rule="evenodd"/><path d="M3228.97 599.112 3259.54 599.112" stroke="#000000" stroke-width="4.58333" stroke-linejoin="round" stroke-miterlimit="10" fill="none" fill-rule="evenodd"/><path d="M3228.97 625.096 3259.54 625.096" stroke="#000000" stroke-width="4.58333" stroke-linejoin="round" stroke-miterlimit="10" fill="none" fill-rule="evenodd"/><path d="M3228.97 651.08 3259.54 651.08" stroke="#000000" stroke-width="4.58333" stroke-linejoin="round" stroke-miterlimit="10" fill="none" fill-rule="evenodd"/><path d="M3228.97 677.064 3259.54 677.064" stroke="#000000" stroke-width="4.58333" stroke-linejoin="round" stroke-miterlimit="10" fill="none" fill-rule="evenodd"/><path d="M3228.97 703.049 3259.54 703.049" stroke="#000000" stroke-width="4.58333" stroke-linejoin="round" stroke-miterlimit="10" fill="none" fill-rule="evenodd"/><path d="M3228.97 729.033 3259.54 729.033" stroke="#000000" stroke-width="4.58333" stroke-linejoin="round" stroke-miterlimit="10" fill="none" fill-rule="evenodd"/><path d="M3228.97 755.017 3259.54 755.017" stroke="#000000" stroke-width="4.58333" stroke-linejoin="round" stroke-miterlimit="10" fill="none" fill-rule="evenodd"/><path d="M3231.26 570.836 3231.26 783.293" stroke="#000000" stroke-width="4.58333" stroke-linejoin="round" stroke-miterlimit="10" fill="none" fill-rule="evenodd"/><path d="M3257.24 570.836 3257.24 783.293" stroke="#000000" stroke-width="4.58333" stroke-linejoin="round" stroke-miterlimit="10" fill="none" fill-rule="evenodd"/><path d="M3228.97 573.127 3259.54 573.127" stroke="#000000" stroke-width="4.58333" stroke-linejoin="round" stroke-miterlimit="10" fill="none" fill-rule="evenodd"/><path d="M3228.97 781.001 3259.54 781.001" stroke="#000000" stroke-width="4.58333" stroke-linejoin="round" stroke-miterlimit="10" fill="none" fill-rule="evenodd"/><path d="M3338.58 624.36 3364.56 624.36 3364.56 650.344 3338.58 650.344Z" fill="#E2F0D9" fill-rule="evenodd"/><path d="M3338.58 650.344 3364.56 650.344 3364.56 676.329 3338.58 676.329Z" fill="#E2F0D9" fill-rule="evenodd"/><path d="M3338.58 676.329 3364.56 676.329 3364.56 702.313 3338.58 702.313Z" fill="#E2F0D9" fill-rule="evenodd"/><path d="M3338.58 702.313 3364.56 702.313 3364.56 728.297 3338.58 728.297Z" fill="#E2F0D9" fill-rule="evenodd"/><path d="M3336.29 650.344 3366.85 650.344" stroke="#000000" stroke-width="4.58333" stroke-linejoin="round" stroke-miterlimit="10" fill="none" fill-rule="evenodd"/><path d="M3336.29 676.329 3366.85 676.329" stroke="#000000" stroke-width="4.58333" stroke-linejoin="round" stroke-miterlimit="10" fill="none" fill-rule="evenodd"/><path d="M3336.29 702.313 3366.85 702.313" stroke="#000000" stroke-width="4.58333" stroke-linejoin="round" stroke-miterlimit="10" fill="none" fill-rule="evenodd"/><path d="M3338.58 622.068 3338.58 730.589" stroke="#000000" stroke-width="4.58333" stroke-linejoin="round" stroke-miterlimit="10" fill="none" fill-rule="evenodd"/><path d="M3364.56 622.068 3364.56 730.589" stroke="#000000" stroke-width="4.58333" stroke-linejoin="round" stroke-miterlimit="10" fill="none" fill-rule="evenodd"/><path d="M3336.29 624.36 3366.85 624.36" stroke="#000000" stroke-width="4.58333" stroke-linejoin="round" stroke-miterlimit="10" fill="none" fill-rule="evenodd"/><path d="M3336.29 728.297 3366.85 728.297" stroke="#000000" stroke-width="4.58333" stroke-linejoin="round" stroke-miterlimit="10" fill="none" fill-rule="evenodd"/><path d="M3451.37 621.469 3477.35 621.469 3477.35 647.454 3451.37 647.454Z" fill="#ED7D31" fill-rule="evenodd"/><path d="M3477.35 621.469 3503.34 621.469 3503.34 647.454 3477.35 647.454Z" fill="#DEEBF7" fill-rule="evenodd"/><path d="M3503.34 621.469 3529.32 621.469 3529.32 647.454 3503.34 647.454Z" fill="#DEEBF7" fill-rule="evenodd"/><path d="M3529.32 621.469 3555.31 621.469 3555.31 647.454 3529.32 647.454Z" fill="#DAE3F3" fill-rule="evenodd"/><path d="M3451.37 647.454 3477.35 647.454 3477.35 673.438 3451.37 673.438Z" fill="#DAE3F3" fill-rule="evenodd"/><path d="M3477.35 647.454 3503.34 647.454 3503.34 673.438 3477.35 673.438Z" fill="#ED7D31" fill-rule="evenodd"/><path d="M3503.34 647.454 3529.32 647.454 3529.32 673.438 3503.34 673.438Z" fill="#DEEBF7" fill-rule="evenodd"/><path d="M3529.32 647.454 3555.31 647.454 3555.31 673.438 3529.32 673.438Z" fill="#DEEBF7" fill-rule="evenodd"/><path d="M3451.37 673.438 3477.35 673.438 3477.35 699.422 3451.37 699.422Z" fill="#DAE3F3" fill-rule="evenodd"/><path d="M3477.35 673.438 3503.34 673.438 3503.34 699.422 3477.35 699.422Z" fill="#DAE3F3" fill-rule="evenodd"/><path d="M3503.34 673.438 3529.32 673.438 3529.32 699.422 3503.34 699.422Z" fill="#ED7D31" fill-rule="evenodd"/><path d="M3529.32 673.438 3555.31 673.438 3555.31 699.422 3529.32 699.422Z" fill="#ED7D31" fill-rule="evenodd"/><path d="M3451.37 699.422 3477.35 699.422 3477.35 725.406 3451.37 725.406Z" fill="#DAE3F3" fill-rule="evenodd"/><path d="M3477.35 699.422 3503.34 699.422 3503.34 725.406 3477.35 725.406Z" fill="#DAE3F3" fill-rule="evenodd"/><path d="M3503.34 699.422 3529.32 699.422 3529.32 725.406 3503.34 725.406Z" fill="#DAE3F3" fill-rule="evenodd"/><path d="M3529.32 699.422 3555.31 699.422 3555.31 725.406 3529.32 725.406Z" fill="#ED7D31" fill-rule="evenodd"/><path d="M3477.35 619.178 3477.35 727.698" stroke="#000000" stroke-width="4.58333" stroke-linejoin="round" stroke-miterlimit="10" fill="none" fill-rule="evenodd"/><path d="M3503.34 619.178 3503.34 727.698" stroke="#000000" stroke-width="4.58333" stroke-linejoin="round" stroke-miterlimit="10" fill="none" fill-rule="evenodd"/><path d="M3529.32 619.178 3529.32 727.698" stroke="#000000" stroke-width="4.58333" stroke-linejoin="round" stroke-miterlimit="10" fill="none" fill-rule="evenodd"/><path d="M3449.08 647.454 3557.6 647.454" stroke="#000000" stroke-width="4.58333" stroke-linejoin="round" stroke-miterlimit="10" fill="none" fill-rule="evenodd"/><path d="M3449.08 673.438 3557.6 673.438" stroke="#000000" stroke-width="4.58333" stroke-linejoin="round" stroke-miterlimit="10" fill="none" fill-rule="evenodd"/><path d="M3449.08 699.422 3557.6 699.422" stroke="#000000" stroke-width="4.58333" stroke-linejoin="round" stroke-miterlimit="10" fill="none" fill-rule="evenodd"/><path d="M3451.37 619.178 3451.37 727.698" stroke="#000000" stroke-width="4.58333" stroke-linejoin="round" stroke-miterlimit="10" fill="none" fill-rule="evenodd"/><path d="M3555.31 619.178 3555.31 727.698" stroke="#000000" stroke-width="4.58333" stroke-linejoin="round" stroke-miterlimit="10" fill="none" fill-rule="evenodd"/><path d="M3449.08 621.469 3557.6 621.469" stroke="#000000" stroke-width="4.58333" stroke-linejoin="round" stroke-miterlimit="10" fill="none" fill-rule="evenodd"/><path d="M3449.08 725.406 3557.6 725.406" stroke="#000000" stroke-width="4.58333" stroke-linejoin="round" stroke-miterlimit="10" fill="none" fill-rule="evenodd"/><path d="M3272.5 674.781 3314.4 674.781 3314.4 678.219 3272.5 678.219ZM3309.81 667.334 3328.15 676.5 3309.81 685.667Z"/><path d="M4038.19 565.639 4064.18 565.639 4064.18 591.623 4038.19 591.623Z" fill="#ED7D31" fill-rule="evenodd"/><path d="M4064.18 565.639 4090.16 565.639 4090.16 591.623 4064.18 591.623Z" fill="#ED7D31" fill-rule="evenodd"/><path d="M4090.16 565.639 4116.15 565.639 4116.15 591.623 4090.16 591.623Z" fill="#DAE3F3" fill-rule="evenodd"/><path d="M4116.15 565.639 4142.13 565.639 4142.13 591.623 4116.15 591.623Z" fill="#DAE3F3" fill-rule="evenodd"/><path d="M4142.13 565.639 4168.11 565.639 4168.11 591.623 4142.13 591.623Z" fill="#DAE3F3" fill-rule="evenodd"/><path d="M4168.11 565.639 4194.1 565.639 4194.1 591.623 4168.11 591.623Z" fill="#DAE3F3" fill-rule="evenodd"/><path d="M4194.1 565.639 4220.08 565.639 4220.08 591.623 4194.1 591.623Z" fill="#DAE3F3" fill-rule="evenodd"/><path d="M4220.08 565.639 4246.07 565.639 4246.07 591.623 4220.08 591.623Z" fill="#DAE3F3" fill-rule="evenodd"/><path d="M4038.19 591.623 4064.18 591.623 4064.18 617.607 4038.19 617.607Z" fill="#DAE3F3" fill-rule="evenodd"/><path d="M4064.18 591.623 4090.16 591.623 4090.16 617.607 4064.18 617.607Z" fill="#ED7D31" fill-rule="evenodd"/><path d="M4090.16 591.623 4116.15 591.623 4116.15 617.607 4090.16 617.607Z" fill="#DAE3F3" fill-rule="evenodd"/><path d="M4116.15 591.623 4142.13 591.623 4142.13 617.607 4116.15 617.607Z" fill="#DAE3F3" fill-rule="evenodd"/><path d="M4142.13 591.623 4168.11 591.623 4168.11 617.607 4142.13 617.607Z" fill="#DAE3F3" fill-rule="evenodd"/><path d="M4168.11 591.623 4194.1 591.623 4194.1 617.607 4168.11 617.607Z" fill="#DAE3F3" fill-rule="evenodd"/><path d="M4194.1 591.623 4220.08 591.623 4220.08 617.607 4194.1 617.607Z" fill="#DAE3F3" fill-rule="evenodd"/><path d="M4220.08 591.623 4246.07 591.623 4246.07 617.607 4220.08 617.607Z" fill="#DAE3F3" fill-rule="evenodd"/><path d="M4038.19 617.607 4064.18 617.607 4064.18 643.592 4038.19 643.592Z" fill="#DAE3F3" fill-rule="evenodd"/><path d="M4064.18 617.607 4090.16 617.607 4090.16 643.592 4064.18 643.592Z" fill="#DAE3F3" fill-rule="evenodd"/><path d="M4090.16 617.607 4116.15 617.607 4116.15 643.592 4090.16 643.592Z" fill="#ED7D31" fill-rule="evenodd"/><path d="M4116.15 617.607 4142.13 617.607 4142.13 643.592 4116.15 643.592Z" fill="#ED7D31" fill-rule="evenodd"/><path d="M4142.13 617.607 4168.11 617.607 4168.11 643.592 4142.13 643.592Z" fill="#DAE3F3" fill-rule="evenodd"/><path d="M4168.11 617.607 4194.1 617.607 4194.1 643.592 4168.11 643.592Z" fill="#DAE3F3" fill-rule="evenodd"/><path d="M4194.1 617.607 4220.08 617.607 4220.08 643.592 4194.1 643.592Z" fill="#DAE3F3" fill-rule="evenodd"/><path d="M4220.08 617.607 4246.07 617.607 4246.07 643.592 4220.08 643.592Z" fill="#DAE3F3" fill-rule="evenodd"/><path d="M4038.19 643.592 4064.18 643.592 4064.18 669.576 4038.19 669.576Z" fill="#DAE3F3" fill-rule="evenodd"/><path d="M4064.18 643.592 4090.16 643.592 4090.16 669.576 4064.18 669.576Z" fill="#DAE3F3" fill-rule="evenodd"/><path d="M4090.16 643.592 4116.15 643.592 4116.15 669.576 4090.16 669.576Z" fill="#ED7D31" fill-rule="evenodd"/><path d="M4116.15 643.592 4142.13 643.592 4142.13 669.576 4116.15 669.576Z" fill="#ED7D31" fill-rule="evenodd"/><path d="M4142.13 643.592 4168.11 643.592 4168.11 669.576 4142.13 669.576Z" fill="#DAE3F3" fill-rule="evenodd"/><path d="M4168.11 643.592 4194.1 643.592 4194.1 669.576 4168.11 669.576Z" fill="#DAE3F3" fill-rule="evenodd"/><path d="M4194.1 643.592 4220.08 643.592 4220.08 669.576 4194.1 669.576Z" fill="#DAE3F3" fill-rule="evenodd"/><path d="M4220.08 643.592 4246.07 643.592 4246.07 669.576 4220.08 669.576Z" fill="#DAE3F3" fill-rule="evenodd"/><path d="M4038.19 669.576 4064.18 669.576 4064.18 695.56 4038.19 695.56Z" fill="#DAE3F3" fill-rule="evenodd"/><path d="M4064.18 669.576 4090.16 669.576 4090.16 695.56 4064.18 695.56Z" fill="#DAE3F3" fill-rule="evenodd"/><path d="M4090.16 669.576 4116.15 669.576 4116.15 695.56 4090.16 695.56Z" fill="#DAE3F3" fill-rule="evenodd"/><path d="M4116.15 669.576 4142.13 669.576 4142.13 695.56 4116.15 695.56Z" fill="#DAE3F3" fill-rule="evenodd"/><path d="M4142.13 669.576 4168.11 669.576 4168.11 695.56 4142.13 695.56Z" fill="#ED7D31" fill-rule="evenodd"/><path d="M4168.11 669.576 4194.1 669.576 4194.1 695.56 4168.11 695.56Z" fill="#ED7D31" fill-rule="evenodd"/><path d="M4194.1 669.576 4220.08 669.576 4220.08 695.56 4194.1 695.56Z" fill="#ED7D31" fill-rule="evenodd"/><path d="M4220.08 669.576 4246.07 669.576 4246.07 695.56 4220.08 695.56Z" fill="#ED7D31" fill-rule="evenodd"/><path d="M4038.19 695.56 4064.18 695.56 4064.18 721.544 4038.19 721.544Z" fill="#DAE3F3" fill-rule="evenodd"/><path d="M4064.18 695.56 4090.16 695.56 4090.16 721.544 4064.18 721.544Z" fill="#DAE3F3" fill-rule="evenodd"/><path d="M4090.16 695.56 4116.15 695.56 4116.15 721.544 4090.16 721.544Z" fill="#DAE3F3" fill-rule="evenodd"/><path d="M4116.15 695.56 4142.13 695.56 4142.13 721.544 4116.15 721.544Z" fill="#DAE3F3" fill-rule="evenodd"/><path d="M4142.13 695.56 4168.11 695.56 4168.11 721.544 4142.13 721.544Z" fill="#ED7D31" fill-rule="evenodd"/><path d="M4168.11 695.56 4194.1 695.56 4194.1 721.544 4168.11 721.544Z" fill="#ED7D31" fill-rule="evenodd"/><path d="M4194.1 695.56 4220.08 695.56 4220.08 721.544 4194.1 721.544Z" fill="#ED7D31" fill-rule="evenodd"/><path d="M4220.08 695.56 4246.07 695.56 4246.07 721.544 4220.08 721.544Z" fill="#ED7D31" fill-rule="evenodd"/><path d="M4038.19 721.544 4064.18 721.544 4064.18 747.529 4038.19 747.529Z" fill="#DAE3F3" fill-rule="evenodd"/><path d="M4064.18 721.544 4090.16 721.544 4090.16 747.529 4064.18 747.529Z" fill="#DAE3F3" fill-rule="evenodd"/><path d="M4090.16 721.544 4116.15 721.544 4116.15 747.529 4090.16 747.529Z" fill="#DAE3F3" fill-rule="evenodd"/><path d="M4116.15 721.544 4142.13 721.544 4142.13 747.529 4116.15 747.529Z" fill="#DAE3F3" fill-rule="evenodd"/><path d="M4142.13 721.544 4168.11 721.544 4168.11 747.529 4142.13 747.529Z" fill="#DAE3F3" fill-rule="evenodd"/><path d="M4168.11 721.544 4194.1 721.544 4194.1 747.529 4168.11 747.529Z" fill="#ED7D31" fill-rule="evenodd"/><path d="M4194.1 721.544 4220.08 721.544 4220.08 747.529 4194.1 747.529Z" fill="#ED7D31" fill-rule="evenodd"/><path d="M4220.08 721.544 4246.07 721.544 4246.07 747.529 4220.08 747.529Z" fill="#ED7D31" fill-rule="evenodd"/><path d="M4038.19 747.529 4064.18 747.529 4064.18 773.513 4038.19 773.513Z" fill="#DAE3F3" fill-rule="evenodd"/><path d="M4064.18 747.529 4090.16 747.529 4090.16 773.513 4064.18 773.513Z" fill="#DAE3F3" fill-rule="evenodd"/><path d="M4090.16 747.529 4116.15 747.529 4116.15 773.513 4090.16 773.513Z" fill="#DAE3F3" fill-rule="evenodd"/><path d="M4116.15 747.529 4142.13 747.529 4142.13 773.513 4116.15 773.513Z" fill="#DAE3F3" fill-rule="evenodd"/><path d="M4142.13 747.529 4168.11 747.529 4168.11 773.513 4142.13 773.513Z" fill="#DAE3F3" fill-rule="evenodd"/><path d="M4168.11 747.529 4194.1 747.529 4194.1 773.513 4168.11 773.513Z" fill="#DAE3F3" fill-rule="evenodd"/><path d="M4194.1 747.529 4220.08 747.529 4220.08 773.513 4194.1 773.513Z" fill="#ED7D31" fill-rule="evenodd"/><path d="M4220.08 747.529 4246.07 747.529 4246.07 773.513 4220.08 773.513Z" fill="#ED7D31" fill-rule="evenodd"/><path d="M4064.18 563.347 4064.18 775.805" stroke="#000000" stroke-width="4.58333" stroke-linejoin="round" stroke-miterlimit="10" fill="none" fill-rule="evenodd"/><path d="M4090.16 563.347 4090.16 775.805" stroke="#000000" stroke-width="4.58333" stroke-linejoin="round" stroke-miterlimit="10" fill="none" fill-rule="evenodd"/><path d="M4116.15 563.347 4116.15 775.805" stroke="#000000" stroke-width="4.58333" stroke-linejoin="round" stroke-miterlimit="10" fill="none" fill-rule="evenodd"/><path d="M4142.13 563.347 4142.13 775.805" stroke="#000000" stroke-width="4.58333" stroke-linejoin="round" stroke-miterlimit="10" fill="none" fill-rule="evenodd"/><path d="M4168.11 563.347 4168.11 775.805" stroke="#000000" stroke-width="4.58333" stroke-linejoin="round" stroke-miterlimit="10" fill="none" fill-rule="evenodd"/><path d="M4194.1 563.347 4194.1 775.805" stroke="#000000" stroke-width="4.58333" stroke-linejoin="round" stroke-miterlimit="10" fill="none" fill-rule="evenodd"/><path d="M4220.08 563.347 4220.08 775.805" stroke="#000000" stroke-width="4.58333" stroke-linejoin="round" stroke-miterlimit="10" fill="none" fill-rule="evenodd"/><path d="M4035.9 591.623 4248.36 591.623" stroke="#000000" stroke-width="4.58333" stroke-linejoin="round" stroke-miterlimit="10" fill="none" fill-rule="evenodd"/><path d="M4035.9 617.607 4248.36 617.607" stroke="#000000" stroke-width="4.58333" stroke-linejoin="round" stroke-miterlimit="10" fill="none" fill-rule="evenodd"/><path d="M4035.9 643.592 4248.36 643.592" stroke="#000000" stroke-width="4.58333" stroke-linejoin="round" stroke-miterlimit="10" fill="none" fill-rule="evenodd"/><path d="M4035.9 669.576 4248.36 669.576" stroke="#000000" stroke-width="4.58333" stroke-linejoin="round" stroke-miterlimit="10" fill="none" fill-rule="evenodd"/><path d="M4035.9 695.56 4248.36 695.56" stroke="#000000" stroke-width="4.58333" stroke-linejoin="round" stroke-miterlimit="10" fill="none" fill-rule="evenodd"/><path d="M4035.9 721.544 4248.36 721.544" stroke="#000000" stroke-width="4.58333" stroke-linejoin="round" stroke-miterlimit="10" fill="none" fill-rule="evenodd"/><path d="M4035.9 747.529 4248.36 747.529" stroke="#000000" stroke-width="4.58333" stroke-linejoin="round" stroke-miterlimit="10" fill="none" fill-rule="evenodd"/><path d="M4038.19 563.347 4038.19 775.805" stroke="#000000" stroke-width="4.58333" stroke-linejoin="round" stroke-miterlimit="10" fill="none" fill-rule="evenodd"/><path d="M4246.07 563.347 4246.07 775.805" stroke="#000000" stroke-width="4.58333" stroke-linejoin="round" stroke-miterlimit="10" fill="none" fill-rule="evenodd"/><path d="M4035.9 565.639 4248.36 565.639" stroke="#000000" stroke-width="4.58333" stroke-linejoin="round" stroke-miterlimit="10" fill="none" fill-rule="evenodd"/><path d="M4035.9 773.513 4248.36 773.513" stroke="#000000" stroke-width="4.58333" stroke-linejoin="round" stroke-miterlimit="10" fill="none" fill-rule="evenodd"/><path d="M3873 676 3893 656 3893 666 3977 666 3977 656 3997 676 3977 696 3977 686 3893 686 3893 696Z" fill="#7F7F7F" fill-rule="evenodd"/><text fill="#70AD47" font-family="Calibri,Calibri_MSFontService,sans-serif" font-weight="700" font-size="50" transform="matrix(1 0 0 1 3884.86 756)">&gt; 98%</text><text fill="#70AD47" font-family="Calibri,Calibri_MSFontService,sans-serif" font-weight="700" font-size="50" transform="matrix(1 0 0 1 3847.32 817)">Similarity</text><path d="M3381.5 674.781 3423.4 674.781 3423.4 678.219 3381.5 678.219ZM3418.81 667.334 3437.15 676.5 3418.81 685.667Z"/><path d="M3569.5 672.781 3611.4 672.781 3611.4 676.219 3569.5 676.219ZM3606.81 665.333 3625.15 674.5 3606.81 683.667Z"/><text font-family="Calibri,Calibri_MSFontService,sans-serif" font-weight="400" font-size="32" transform="matrix(-1.83697e-16 -1 1 -1.83697e-16 3305.43 792)">sample</text><text font-family="Calibri,Calibri_MSFontService,sans-serif" font-weight="400" font-size="32" transform="matrix(-1.83697e-16 -1 1 -1.83697e-16 3415.73 809)">attention</text><text font-family="Calibri,Calibri_MSFontService,sans-serif" font-weight="400" font-size="32" transform="matrix(-1.83697e-16 -1 1 -1.83697e-16 3604.36 825)">speculation</text><text font-family="Calibri,Calibri_MSFontService,sans-serif" font-weight="400" font-size="46" transform="matrix(1 0 0 1 3506.3 557)">Speculation</text><text font-family="Calibri,Calibri_MSFontService,sans-serif" font-weight="400" font-size="46" transform="matrix(1 0 0 1 3734.32 557)">attention</text></g></svg>